<svg xmlns="http://www.w3.org/2000/svg" viewBox="0 0 432 432" enable-background="new 0 0 432 432"><g><g fill="#808080"><path d="M207.874 86.368h17.607c1.329 1.54 3.037.407 4.553.637 3.883.59 7.796 1.013 11.655 1.732 3.537.659 7.045 1.518 10.515 2.476 2.492.688 4.984 2.014 7.327 2.465 4.42.85 8.137 3.11 12.21 4.572 3.631 1.303 7.032 3.302 10.43 5.183 3.281 1.816 6.506 3.759 9.607 5.866 2.133 1.449 4.076 3.489 6.151 4.686 3.85 2.22 6.734 5.405 10.03 8.134 3.447 2.854 6.454 6.262 9.505 9.564 1.431 1.548 2.497 3.723 3.902 4.977 3.405 3.039 5.346 7.013 7.986 10.504 2.429 3.213 4.35 6.83 6.306 10.374 1.654 2.997 3.121 6.106 4.516 9.234 1.404 3.149 2.775 6.331 3.874 9.595 1.449 4.304 2.608 8.705 3.913 13.057.61 2.035.603 4.212 1.176 6.2.879 3.055 1.236 6.146 1.627 9.26.331 2.638.749 5.264 1.129 7.896v18.962c-.572.215-.397.728-.448 1.144-.461 3.743-.834 7.499-1.409 11.224-.277 1.793-1.214 3.677-1.281 5.283-.206 4.946-2.292 9.322-3.433 13.959-.875 3.555-2.382 6.971-3.792 10.372-.933 2.251-2.534 4.406-3.21 6.547-1.411 4.471-4.213 8.05-6.322 12.035-2.014 3.805-4.703 7.268-7.243 10.774-1.204 1.661-3.11 3.048-4.04 4.635-2.444 4.171-6.195 7.022-9.279 10.509-2.509 2.838-5.606 5.152-8.396 7.748-2.405 2.237-5.253 3.879-7.825 5.898-3.166 2.485-6.662 4.572-10.122 6.654-3.015 1.815-6.119 3.509-9.296 5.02-2.252 1.071-4.933 1.687-6.907 2.854-3.898 2.304-8.214 3.093-12.264 4.716-3.519 1.411-7.343 2.089-11.063 2.962-4.64 1.089-9.41 1.484-14.071 2.413-2.165.432-4.493-.877-6.461.759h-18.51c-.985-1.541-2.426-.492-3.658-.663-4.086-.569-8.224-.941-12.23-1.87-5.96-1.381-11.887-2.82-17.723-4.863-4.2-1.47-8.219-3.391-12.45-4.763-3.663-1.188-6.941-3.296-10.214-5.235-5.372-3.184-10.632-6.527-15.611-10.424-3.378-2.643-6.545-5.573-9.979-8.16-3.397-2.559-6.033-5.97-8.956-9.046-2.298-2.418-4.387-5.048-6.423-7.697-2.143-2.788-4.175-5.668-6.142-8.585-2.678-3.971-4.987-8.168-7.214-12.403-1.263-2.402-2.438-4.857-3.51-7.35-1.306-3.037-2.604-6.09-3.649-9.223-1.389-4.163-2.54-8.406-3.773-12.621-.656-2.244-.74-4.632-1.338-6.844-.809-2.989-1.244-6.004-1.556-9.039-.248-2.416-.55-4.807-1.08-7.173v-18.962c1.078-2.462 1.24-5.309 1.31-7.733.127-4.419 1.447-8.511 2.118-12.75.618-3.903 1.871-7.724 3.065-11.512 1.081-3.43 2.349-6.814 3.745-10.129 1.031-2.449 2.584-4.794 3.49-7.166 2.198-5.752 5.714-10.658 8.755-15.866 1.528-2.617 3.404-5.047 5.281-7.437 1.126-1.433 2.952-2.732 3.643-4.04 2.141-4.052 5.748-6.635 8.634-9.882 2.97-3.341 6.543-6.169 9.993-9.053 1.57-1.312 3.747-2.263 5.012-3.562 3.084-3.165 6.979-4.932 10.487-7.296 3.76-2.534 7.935-4.474 12.012-6.506 1.907-.951 4.221-1.4 5.941-2.381 4.754-2.712 10.059-3.612 15.045-5.49 2.589-.975 5.369-1.499 8.103-2.016 2.68-.507 5.432-.814 8.097-1.219 3.716-.565 7.311-1.636 11.138-1.103.284.04.657-.531.99-.818zm9.429 260.182c68.546-.208 124.563-56.747 123.912-125.748-.648-68.749-56.741-124.246-125.269-123.739-69.251.512-124.722 56.697-124.291 125.426.434 68.968 56.971 124.736 125.648 124.061zM217.303 346.55c-68.678.675-125.215-55.093-125.647-124.062-.431-68.729 55.04-124.914 124.291-125.426 68.528-.507 124.621 54.99 125.269 123.739.65 69.002-55.367 125.54-123.913 125.749zm-12.934-131.078c-.86-.456-1.736-.884-2.578-1.37-27.773-16.034-55.554-32.055-83.287-48.157-1.773-1.03-2.432-.735-3.305.974-2.463 4.823-4.682 9.742-6.72 14.759-.809 1.991-.277 2.6 1.629 3.246 31.247 10.59 62.468 21.258 93.695 31.908l-.373 1.356c-.266-.133-.521-.299-.799-.395-31.209-10.643-62.424-21.27-93.619-31.954-1.608-.551-1.988.013-2.413 1.383-3.134 10.104-4.863 20.437-5.218 31.002-.099 2.95-.06 2.956 2.837 2.956 32.174.001 64.348.002 96.523-.005.748 0 1.495-.08 2.243-.123l-.146 1.285c-8.721.023-17.442.063-26.162.066-24.361.009-48.723.019-73.084-.03-1.716-.003-2.364.362-2.273 2.224.281 5.785.751 11.539 1.765 17.249.206 1.162.387 1.68 1.819 1.392 16.684-3.356 33.383-6.635 50.08-9.927 16.035-3.161 32.071-6.313 48.107-9.468l.215 1.189c-.363.098-.721.219-1.088.292-32.232 6.366-64.461 12.741-96.703 19.056-1.61.315-1.825.901-1.49 2.372 2.399 10.513 6.167 20.504 11.087 30.09.942 1.835 1.751 1.774 3.372.829 14.862-8.66 29.768-17.245 44.672-25.832 13.73-7.91 27.474-15.796 41.211-23.693l.351.919c-1.992 1.735-4.412 2.784-6.666 4.087-26.38 15.261-52.774 30.498-79.188 45.701-1.365.786-1.782 1.335-.807 2.838 3.113 4.798 6.402 9.455 10.008 13.895.909 1.12 1.499 1.455 2.801.311 24.45-21.481 48.95-42.904 73.432-64.349.547-.48 1.3-.809 1.439-1.655.521.293.656.812.782 1.335-2.518 2.252-5.017 4.527-7.558 6.753-22.279 19.509-44.553 39.023-66.878 58.479-1.484 1.293-1.603 2.015-.206 3.491 7.275 7.689 15.352 14.364 24.323 19.986 1.551.972 2.283 1.121 3.342-.728 14.711-25.657 29.503-51.267 44.317-76.865 1.718-2.968 3.21-6.081 5.337-8.804l.922.347c-.456.86-.885 1.735-1.371 2.577-16.036 27.771-32.059 55.551-48.164 83.282-1.033 1.779-.725 2.436.976 3.305 4.823 2.464 9.738 4.691 14.76 6.721 1.981.801 2.604.296 3.255-1.625 10.588-31.247 21.255-62.468 31.905-93.694l1.356.373c-.115.193-.268.374-.339.582-10.673 31.308-21.33 62.622-32.039 93.918-.513 1.499-.02 1.872 1.296 2.283 10.109 3.155 20.454 4.881 31.026 5.262 3.043.11 3.048.064 3.048-2.973.001-32.051.001-64.103-.005-96.154 0-.824-.08-1.647-.123-2.471l1.285.147c.023 8.269.063 16.538.066 24.808.009 24.811.019 49.622-.03 74.433-.003 1.712.357 2.364 2.222 2.275 5.786-.276 11.538-.778 17.249-1.769 1.158-.201 1.682-.379 1.393-1.816-3.356-16.683-6.635-33.382-9.927-50.078-3.161-16.034-6.314-32.069-9.468-48.105l1.19-.216.967 4.856c6.123 30.831 12.264 61.659 18.322 92.504.352 1.794.78 2.332 2.673 1.886 10.375-2.444 20.253-6.143 29.683-11.117 1.898-1.001 1.885-1.787.893-3.489-8.817-15.122-17.554-30.29-26.292-45.457-7.724-13.406-15.421-26.829-23.13-40.244l.919-.35c1.735 1.992 2.784 4.412 4.087 6.665 15.261 26.379 30.498 52.773 45.698 79.188.795 1.381 1.35 1.756 2.839.796 4.807-3.099 9.459-6.395 13.901-9.998 1.125-.912 1.444-1.503.305-2.8-21.48-24.449-42.903-48.949-64.347-73.43-.48-.547-.809-1.3-1.655-1.439.293-.521.812-.656 1.335-.782 2.252 2.519 4.527 5.017 6.753 7.559 19.51 22.28 39.025 44.556 58.483 66.882 1.29 1.48 2.014 1.614 3.492.21 7.671-7.292 14.355-15.363 19.992-24.324.976-1.552 1.109-2.289-.734-3.346-25.591-14.679-51.133-29.442-76.67-44.215-3.034-1.755-6.208-3.29-9.004-5.442l.348-.922c.86.455 1.735.884 2.578 1.37 27.772 16.034 55.552 32.054 83.285 48.155 1.767 1.026 2.431.746 3.305-.97 2.458-4.825 4.689-9.739 6.719-14.761.801-1.982.291-2.6-1.627-3.25-31.247-10.588-62.468-21.255-93.694-31.905l.373-1.356c.339.152.669.332 1.019.451 31.095 10.607 62.198 21.19 93.272 31.859 1.766.606 2.128-.005 2.569-1.436 3.097-10.044 4.829-20.313 5.186-30.813.104-3.049.063-3.054-2.968-3.054-32.053-.001-64.106-.001-96.16.005-.824 0-1.647.081-2.47.125l.146-1.287c8.871-.023 17.742-.062 26.613-.066 24.211-.009 48.421-.019 72.632.031 1.719.004 2.36-.368 2.271-2.226-.279-5.786-.749-11.54-1.762-17.25-.206-1.162-.389-1.677-1.82-1.389-16.684 3.356-33.383 6.635-50.08 9.927-16.035 3.162-32.071 6.314-48.107 9.469l-.216-1.19c.363-.098.721-.219 1.088-.292 32.237-6.367 64.473-12.736 96.716-19.074 1.323-.26 1.879-.551 1.525-2.148-2.379-10.716-6.283-20.837-11.416-30.521-.823-1.552-1.483-1.53-2.877-.719-15 8.728-30.031 17.402-45.069 26.065-13.667 7.874-27.352 15.717-41.029 23.573l-.351-.919c1.933-1.688 4.278-2.715 6.467-3.981 26.381-15.26 52.774-30.501 79.196-45.689 1.561-.897 1.966-1.5.882-3.151-3.096-4.718-6.337-9.318-9.892-13.702-.908-1.12-1.498-1.453-2.8-.31-24.45 21.481-48.95 42.905-73.432 64.35-.548.48-1.3.809-1.439 1.655-.521-.293-.656-.812-.782-1.335 2.519-2.252 5.017-4.527 7.559-6.753 22.28-19.51 44.555-39.024 66.88-58.482 1.476-1.286 1.621-2.009.213-3.491-7.289-7.674-15.355-14.363-24.33-19.98-1.545-.967-2.28-1.134-3.344.722-14.71 25.658-29.504 51.269-44.318 76.868-1.718 2.968-3.21 6.082-5.338 8.804l-.921-.347c.456-.86.885-1.735 1.371-2.577 16.036-27.771 32.059-55.551 48.164-83.282 1.033-1.779.724-2.436-.976-3.305-4.822-2.464-9.738-4.691-14.759-6.721-1.982-.801-2.604-.295-3.255 1.625-10.588 31.247-21.255 62.468-31.905 93.694l-1.356-.373c.115-.193.268-.373.339-.582 10.673-31.308 21.33-62.622 32.039-93.919.513-1.5.018-1.872-1.297-2.283-10.108-3.157-20.453-4.88-31.025-5.263-3.043-.11-3.048-.064-3.048 2.973-.001 32.051-.001 64.103.005 96.154 0 .823.081 1.647.125 2.47l-1.287-.145c-.023-8.269-.063-16.539-.066-24.808-.009-24.812-.019-49.623.03-74.435.003-1.712-.356-2.365-2.222-2.276-5.786.278-11.538.778-17.249 1.77-1.159.201-1.682.38-1.393 1.816 3.356 16.683 6.635 33.382 9.927 50.079 3.161 16.034 6.313 32.07 9.467 48.105l-1.189.215-.967-4.856c-6.123-30.832-12.265-61.66-18.322-92.505-.353-1.795-.784-2.331-2.673-1.885-10.374 2.446-20.253 6.142-29.682 11.117-1.896 1.001-1.887 1.786-.894 3.489 8.817 15.122 17.554 30.29 26.293 45.457 7.724 13.407 15.421 26.829 23.13 40.245l-.919.35c-1.736-1.992-2.784-4.412-4.088-6.665-15.261-26.38-30.499-52.773-45.698-79.188-.795-1.381-1.349-1.754-2.838-.795-4.81 3.095-9.458 6.396-13.903 9.996-1.125.911-1.444 1.504-.305 2.801 21.48 24.449 42.903 48.949 64.348 73.43.48.547.809 1.3 1.655 1.439-.293.521-.812.656-1.335.782-2.252-2.519-4.527-5.017-6.753-7.559-19.51-22.281-39.026-44.557-58.484-66.883-1.29-1.48-2.01-1.611-3.491-.207-7.681 7.284-14.354 15.364-19.99 24.324-.977 1.553-1.113 2.286.731 3.344 25.591 14.679 51.134 29.443 76.671 44.215 3.034 1.755 6.208 3.29 9.004 5.442l-.349.927zM203.804 216.832c.414-.36.597-.815.565-1.36l.348-.922c1.106-.603 1.789-1.571 2.313-2.677.524-.126 1.043-.261 1.335-.782.35-.279.77-.5.829-1.017l.919-.35 3.115-1.063 1.189-.216c.538.127 1.031-.004 1.505-.252l1.287.145 2.863.448 1.356.373c.36.414.815.597 1.36.566l.921.347c.603 1.106 1.572 1.789 2.677 2.313.126.524.261 1.043.782 1.335.279.35.5.771 1.017.828l.351.919 1.062 3.115.216 1.191c-.128.537.005 1.03.251 1.503l-.146 1.287-.448 2.863-.373 1.356c-.414.36-.597.815-.565 1.36l-.348.922c-1.106.603-1.789 1.571-2.313 2.677-.524.126-1.043.261-1.335.782-.35.279-.771.5-.828 1.017l-.919.35-3.115 1.063-1.191.216c-.537-.128-1.03.005-1.503.251l-1.285-.147-2.865-.447-1.356-.373c-.36-.414-.815-.597-1.36-.566l-.922-.347c-.603-1.106-1.571-1.789-2.677-2.313-.126-.524-.261-1.043-.782-1.335-.279-.35-.5-.771-1.017-.828l-.351-.919-1.062-3.115-.216-1.189c.127-.538-.004-1.031-.252-1.505l.146-1.285.447-2.865.375-1.354z"/></g><radialGradient cx="220.435" cy="80.408" r="696.596" gradientUnits="userSpaceOnUse"><stop offset="0" stop-color="#F7931E"/><stop offset="1" stop-color="#ED1C24"/></radialGradient><g fill="#fff"><path d="M89.114 171.167c47.018 0 85.131 38.111 85.131 85.133 0 47.014-38.112 85.128-85.131 85.128-47.017 0-85.129-38.114-85.129-85.128 0-47.022 38.112-85.133 85.129-85.133m0 9.081c-41.933 0-76.05 34.116-76.05 76.052 0 41.932 34.117 76.045 76.05 76.045 41.935 0 76.052-34.113 76.052-76.045 0-41.935-34.117-76.052-76.052-76.052zM341.84 171.167c47.018 0 85.132 38.111 85.132 85.133 0 47.014-38.114 85.128-85.132 85.128-47.016 0-85.129-38.114-85.129-85.128 0-47.022 38.113-85.133 85.129-85.133m0 9.081c-41.935 0-76.048 34.116-76.048 76.052 0 41.932 34.113 76.045 76.048 76.045 41.936 0 76.051-34.113 76.051-76.045 0-41.935-34.115-76.052-76.051-76.052zM190.737 242.886c14.923 0 27.023 12.099 27.023 27.023 0 14.927-12.1 27.024-27.023 27.024-14.925 0-27.024-12.097-27.024-27.024 0-14.924 12.099-27.023 27.024-27.023m0 9.121c-9.871 0-17.905 8.032-17.905 17.902 0 9.873 8.033 17.905 17.905 17.905s17.901-8.032 17.901-17.905c0-9.87-8.03-17.902-17.901-17.902zM168.47 271.731s13.968-.81 15.181-4.046c1.214-3.241-6.275-14.576-6.275-14.576l3.846-2.228s5.059 12.552 9.11 12.552l11.133-12.146 3.847 3.236s-9.111 9.516-8.706 12.959c.408 3.439 14.374 8.097 14.374 8.097l-1.619 4.453-8.098-1.415 17.814 27.529 6.681 1.415.606 4.252-2.634 2.632-16.393 2.023-3.036-3.44.808-4.049 4.048-1.618-17.205-25.305-.205 9.311h-5.261s2.227-14.373-.405-16.194c-2.63-1.822-16.397 2.224-16.397 2.224l-1.214-5.666zM89.495 247.412l101.89-3.551"/><path d="M89.452 246.174l101.891-3.55.084 2.475-101.889 3.549-.086-2.474zM183.845 295.014l-94.636-29.361"/><path d="M88.843 266.832l.73-2.36 94.635 29.359-.73 2.365-94.635-29.364zM115.709 95.953c1.001 4.643 7.996 8.024 13.035 8.871 1.328.775 1.486 2.758 3.364 3.031 3.327.483 15.146-.862 19.25-2.313 2.79-.987 4.958-2.842 7.602-3.88 2.162-.851 5.889-1.604 8.624-1.328 1.542.158 3.077 1.646 5.076 1.748 2.031.104 4.057-.393 5.934-1.136 1.089-.429 2.196-.939 3.225-1.499.398-.217.601-.458.678-.716.158-.539-.246-1.156-.59-1.799-.293-.546-.629-1.075-1.037-1.548-.841-.967-1.945-1.61-3.151-2.015-2.924-.986-6.226-.959-9.273-.928-1.971.018-3.933.137-5.902.215-5.138.205-11.129.448-16.265.438-8.302-.02-14.589-.885-22.363-1.726-4.032-.44-9.451-1.193-8.207 4.585zm19.596 10.667c-1.816.041-3.379-.217-4.068-1.496l2.62-.203.003.012 1.48-.107-.011-.019c7.165-.335 12.733-1.853 18.988-2.458-1.675 1.264-2.489 1.879-5.315 2.553.008.089-8.814 1.585-13.697 1.718zM341.092 246.014c-.917 0-1.803.128-2.648.348-3.737-7.511-10.077-20.399-12.107-25.48-2.717-6.788-17.411-52.017-19.698-59.064l.679-.234c.812-.282 1.243-1.168.963-1.981-.28-.813-1.168-1.245-1.979-.964l-.22.076-9.222-29.713c.689-.343 1.036-1.144.779-1.891-.28-.814-1.164-1.247-1.98-.967l-.084.03-2.436-5.471 6.477 1.36.145.016c1.669.196 9.797 1.353 17.124 4.489 3.663 1.556 7.092 3.606 9.433 6.038 2.341 2.468 3.647 5.086 3.672 8.57 0 .316-.012.651-.038 1.008-.305 4.021-1.386 7.016-2.986 9.442-2.389 3.61-6.152 6.125-11.028 7.986-4.853 1.856-10.698 2.968-16.657 3.864 0 0-1.367 1.19-.891 3.945.475 2.758 1.98 3.274 1.98 3.274 8.172-1.251 16.649-2.842 23.687-6.839 3.512-2.004 6.661-4.67 8.998-8.201 2.342-3.522 3.805-7.859 4.18-12.939.036-.519.058-1.028.058-1.54.024-5.93-2.717-10.832-6.411-14.322-5.558-5.275-13.155-8.102-19.392-9.84-6.238-1.713-11.157-2.22-11.288-2.234l-.371-.022-11.958-2.388c-1.194 0-2.319.59-2.997 1.573-.683.982-.839 2.241-.42 3.36l4.215 11.252-.076.024c-.813.281-1.244 1.167-.964 1.979.274.796 1.13 1.222 1.931.979l.142.454-.52.471-132.826 4.138-9.481-31.423c-4.46-1.787-7.157 1.016-7.157 1.016l10.508 36.199-58.825 103.88c-.737-.165-1.499-.257-2.288-.257-5.824 0-10.545 4.722-10.545 10.548 0 5.824 4.722 10.543 10.545 10.543 3.799 0 7.116-2.011 8.973-5.024l94.955 12.94 105.776-114.135.105.34c-.602.375-.893 1.126-.652 1.829.282.813 1.168 1.243 1.981.964l.474-.166 17.401 52.188s10.421 21.73 16.349 32.31c-2.396 1.934-3.933 4.89-3.933 8.21 0 5.824 4.723 10.543 10.548 10.543 5.824 0 10.545-4.719 10.545-10.543 0-5.826-4.721-10.548-10.545-10.548zm-241.531 11.913c.061-.446.1-.899.1-1.364 0-3.99-2.214-7.455-5.479-9.251l57.799-98.402 34.055 116.964-86.475-7.947zm93.092 5.415l-33.476-118.716 132.925-4.863 3.96 12.396-103.409 111.183z"/></g></g></svg>