<?xml version="1.0" encoding="utf-8"?>
<!-- Generator: Adobe Illustrator 17.1.0, SVG Export Plug-In . SVG Version: 6.00 Build 0)  -->
<!DOCTYPE svg PUBLIC "-//W3C//DTD SVG 1.1//EN" "http://www.w3.org/Graphics/SVG/1.1/DTD/svg11.dtd">
<svg version="1.1" xmlns="http://www.w3.org/2000/svg" xmlns:xlink="http://www.w3.org/1999/xlink" x="0px" y="0px"
	 viewBox="0 0 432 432" enable-background="new 0 0 432 432" xml:space="preserve">
<g id="Guides_For_Artboard">
</g>
<g id="Layer_1">
	<g>
		<path fill="#808080" d="M207.874,86.368c5.869,0,11.738,0,17.607,0c1.329,1.54,3.037,0.407,4.553,0.637
			c3.883,0.59,7.796,1.013,11.655,1.732c3.537,0.659,7.045,1.518,10.515,2.476c2.492,0.688,4.984,2.014,7.327,2.465
			c4.42,0.85,8.137,3.11,12.21,4.572c3.631,1.303,7.032,3.302,10.43,5.183c3.281,1.816,6.506,3.759,9.607,5.866
			c2.133,1.449,4.076,3.489,6.151,4.686c3.85,2.22,6.734,5.405,10.03,8.134c3.447,2.854,6.454,6.262,9.505,9.564
			c1.431,1.548,2.497,3.723,3.902,4.977c3.405,3.039,5.346,7.013,7.986,10.504c2.429,3.213,4.35,6.83,6.306,10.374
			c1.654,2.997,3.121,6.106,4.516,9.234c1.404,3.149,2.775,6.331,3.874,9.595c1.449,4.304,2.608,8.705,3.913,13.057
			c0.61,2.035,0.603,4.212,1.176,6.2c0.879,3.055,1.236,6.146,1.627,9.26c0.331,2.638,0.749,5.264,1.129,7.896
			c0,6.321,0,12.641,0,18.962c-0.572,0.215-0.397,0.728-0.448,1.144c-0.461,3.743-0.834,7.499-1.409,11.224
			c-0.277,1.793-1.214,3.677-1.281,5.283c-0.206,4.946-2.292,9.322-3.433,13.959c-0.875,3.555-2.382,6.971-3.792,10.372
			c-0.933,2.251-2.534,4.406-3.21,6.547c-1.411,4.471-4.213,8.05-6.322,12.035c-2.014,3.805-4.703,7.268-7.243,10.774
			c-1.204,1.661-3.11,3.048-4.04,4.635c-2.444,4.171-6.195,7.022-9.279,10.509c-2.509,2.838-5.606,5.152-8.396,7.748
			c-2.405,2.237-5.253,3.879-7.825,5.898c-3.166,2.485-6.662,4.572-10.122,6.654c-3.015,1.815-6.119,3.509-9.296,5.02
			c-2.252,1.071-4.933,1.687-6.907,2.854c-3.898,2.304-8.214,3.093-12.264,4.716c-3.519,1.411-7.343,2.089-11.063,2.962
			c-4.64,1.089-9.41,1.484-14.071,2.413c-2.165,0.432-4.493-0.877-6.461,0.759c-6.17,0-12.34,0-18.51,0
			c-0.985-1.541-2.426-0.492-3.658-0.663c-4.086-0.569-8.224-0.941-12.23-1.87c-5.96-1.381-11.887-2.82-17.723-4.863
			c-4.2-1.47-8.219-3.391-12.45-4.763c-3.663-1.188-6.941-3.296-10.214-5.235c-5.372-3.184-10.632-6.527-15.611-10.424
			c-3.378-2.643-6.545-5.573-9.979-8.16c-3.397-2.559-6.033-5.97-8.956-9.046c-2.298-2.418-4.387-5.048-6.423-7.697
			c-2.143-2.788-4.175-5.668-6.142-8.585c-2.678-3.971-4.987-8.168-7.214-12.403c-1.263-2.402-2.438-4.857-3.51-7.35
			c-1.306-3.037-2.604-6.09-3.649-9.223c-1.389-4.163-2.54-8.406-3.773-12.621c-0.656-2.244-0.74-4.632-1.338-6.844
			c-0.809-2.989-1.244-6.004-1.556-9.039c-0.248-2.416-0.55-4.807-1.08-7.173c0-6.32,0-12.641,0-18.962
			c1.078-2.462,1.24-5.309,1.31-7.733c0.127-4.419,1.447-8.511,2.118-12.75c0.618-3.903,1.871-7.724,3.065-11.512
			c1.081-3.43,2.349-6.814,3.745-10.129c1.031-2.449,2.584-4.794,3.49-7.166c2.198-5.752,5.714-10.658,8.755-15.866
			c1.528-2.617,3.404-5.047,5.281-7.437c1.126-1.433,2.952-2.732,3.643-4.04c2.141-4.052,5.748-6.635,8.634-9.882
			c2.97-3.341,6.543-6.169,9.993-9.053c1.57-1.312,3.747-2.263,5.012-3.562c3.084-3.165,6.979-4.932,10.487-7.296
			c3.76-2.534,7.935-4.474,12.012-6.506c1.907-0.951,4.221-1.4,5.941-2.381c4.754-2.712,10.059-3.612,15.045-5.49
			c2.589-0.975,5.369-1.499,8.103-2.016c2.68-0.507,5.432-0.814,8.097-1.219c3.716-0.565,7.311-1.636,11.138-1.103
			C207.168,87.226,207.541,86.655,207.874,86.368z M217.303,346.55c68.546-0.208,124.563-56.747,123.912-125.748
			c-0.648-68.749-56.741-124.246-125.269-123.739c-69.251,0.512-124.722,56.697-124.291,125.426
			C92.089,291.457,148.626,347.225,217.303,346.55z"/>
		<path fill="#808080" d="M217.303,346.55c-68.678,0.675-125.215-55.093-125.647-124.062
			c-0.431-68.729,55.04-124.914,124.291-125.426c68.528-0.507,124.621,54.99,125.269,123.739
			C341.866,289.803,285.849,346.341,217.303,346.55z M204.369,215.472c-0.86-0.456-1.736-0.884-2.578-1.37
			c-27.773-16.034-55.554-32.055-83.287-48.157c-1.773-1.03-2.432-0.735-3.305,0.974c-2.463,4.823-4.682,9.742-6.72,14.759
			c-0.809,1.991-0.277,2.6,1.629,3.246c31.247,10.59,62.468,21.258,93.695,31.908c-0.124,0.452-0.249,0.904-0.373,1.356
			c-0.266-0.133-0.521-0.299-0.799-0.395c-31.209-10.643-62.424-21.27-93.619-31.954c-1.608-0.551-1.988,0.013-2.413,1.383
			c-3.134,10.104-4.863,20.437-5.218,31.002c-0.099,2.95-0.06,2.956,2.837,2.956c32.174,0.001,64.348,0.002,96.523-0.005
			c0.748,0,1.495-0.08,2.243-0.123c-0.049,0.428-0.097,0.856-0.146,1.285c-8.721,0.023-17.442,0.063-26.162,0.066
			c-24.361,0.009-48.723,0.019-73.084-0.03c-1.716-0.003-2.364,0.362-2.273,2.224c0.281,5.785,0.751,11.539,1.765,17.249
			c0.206,1.162,0.387,1.68,1.819,1.392c16.684-3.356,33.383-6.635,50.08-9.927c16.035-3.161,32.071-6.313,48.107-9.468
			c0.072,0.396,0.144,0.792,0.215,1.189c-0.363,0.098-0.721,0.219-1.088,0.292c-32.232,6.366-64.461,12.741-96.703,19.056
			c-1.61,0.315-1.825,0.901-1.49,2.372c2.399,10.513,6.167,20.504,11.087,30.09c0.942,1.835,1.751,1.774,3.372,0.829
			c14.862-8.66,29.768-17.245,44.672-25.832c13.73-7.91,27.474-15.796,41.211-23.693c0.117,0.306,0.234,0.613,0.351,0.919
			c-1.992,1.735-4.412,2.784-6.666,4.087c-26.38,15.261-52.774,30.498-79.188,45.701c-1.365,0.786-1.782,1.335-0.807,2.838
			c3.113,4.798,6.402,9.455,10.008,13.895c0.909,1.12,1.499,1.455,2.801,0.311c24.45-21.481,48.95-42.904,73.432-64.349
			c0.547-0.48,1.3-0.809,1.439-1.655c0.521,0.293,0.656,0.812,0.782,1.335c-2.518,2.252-5.017,4.527-7.558,6.753
			c-22.279,19.509-44.553,39.023-66.878,58.479c-1.484,1.293-1.603,2.015-0.206,3.491c7.275,7.689,15.352,14.364,24.323,19.986
			c1.551,0.972,2.283,1.121,3.342-0.728c14.711-25.657,29.503-51.267,44.317-76.865c1.718-2.968,3.21-6.081,5.337-8.804
			c0.307,0.116,0.615,0.232,0.922,0.347c-0.456,0.86-0.885,1.735-1.371,2.577c-16.036,27.771-32.059,55.551-48.164,83.282
			c-1.033,1.779-0.725,2.436,0.976,3.305c4.823,2.464,9.738,4.691,14.76,6.721c1.981,0.801,2.604,0.296,3.255-1.625
			c10.588-31.247,21.255-62.468,31.905-93.694c0.452,0.124,0.904,0.249,1.356,0.373c-0.115,0.193-0.268,0.374-0.339,0.582
			c-10.673,31.308-21.33,62.622-32.039,93.918c-0.513,1.499-0.02,1.872,1.296,2.283c10.109,3.155,20.454,4.881,31.026,5.262
			c3.043,0.11,3.048,0.064,3.048-2.973c0.001-32.051,0.001-64.103-0.005-96.154c0-0.824-0.08-1.647-0.123-2.471
			c0.428,0.049,0.857,0.098,1.285,0.147c0.023,8.269,0.063,16.538,0.066,24.808c0.009,24.811,0.019,49.622-0.03,74.433
			c-0.003,1.712,0.357,2.364,2.222,2.275c5.786-0.276,11.538-0.778,17.249-1.769c1.158-0.201,1.682-0.379,1.393-1.816
			c-3.356-16.683-6.635-33.382-9.927-50.078c-3.161-16.034-6.314-32.069-9.468-48.105c0.397-0.072,0.793-0.144,1.19-0.216
			c0.322,1.619,0.646,3.237,0.967,4.856c6.123,30.831,12.264,61.659,18.322,92.504c0.352,1.794,0.78,2.332,2.673,1.886
			c10.375-2.444,20.253-6.143,29.683-11.117c1.898-1.001,1.885-1.787,0.893-3.489c-8.817-15.122-17.554-30.29-26.292-45.457
			c-7.724-13.406-15.421-26.829-23.13-40.244c0.306-0.117,0.613-0.233,0.919-0.35c1.735,1.992,2.784,4.412,4.087,6.665
			c15.261,26.379,30.498,52.773,45.698,79.188c0.795,1.381,1.35,1.756,2.839,0.796c4.807-3.099,9.459-6.395,13.901-9.998
			c1.125-0.912,1.444-1.503,0.305-2.8c-21.48-24.449-42.903-48.949-64.347-73.43c-0.48-0.547-0.809-1.3-1.655-1.439
			c0.293-0.521,0.812-0.656,1.335-0.782c2.252,2.519,4.527,5.017,6.753,7.559c19.51,22.28,39.025,44.556,58.483,66.882
			c1.29,1.48,2.014,1.614,3.492,0.21c7.671-7.292,14.355-15.363,19.992-24.324c0.976-1.552,1.109-2.289-0.734-3.346
			c-25.591-14.679-51.133-29.442-76.67-44.215c-3.034-1.755-6.208-3.29-9.004-5.442c0.116-0.307,0.232-0.615,0.348-0.922
			c0.86,0.455,1.735,0.884,2.578,1.37c27.772,16.034,55.552,32.054,83.285,48.155c1.767,1.026,2.431,0.746,3.305-0.97
			c2.458-4.825,4.689-9.739,6.719-14.761c0.801-1.982,0.291-2.6-1.627-3.25c-31.247-10.588-62.468-21.255-93.694-31.905
			c0.124-0.452,0.249-0.904,0.373-1.356c0.339,0.152,0.669,0.332,1.019,0.451c31.095,10.607,62.198,21.19,93.272,31.859
			c1.766,0.606,2.128-0.005,2.569-1.436c3.097-10.044,4.829-20.313,5.186-30.813c0.104-3.049,0.063-3.054-2.968-3.054
			c-32.053-0.001-64.106-0.001-96.16,0.005c-0.824,0-1.647,0.081-2.47,0.125c0.049-0.429,0.097-0.858,0.146-1.287
			c8.871-0.023,17.742-0.062,26.613-0.066c24.211-0.009,48.421-0.019,72.632,0.031c1.719,0.004,2.36-0.368,2.271-2.226
			c-0.279-5.786-0.749-11.54-1.762-17.25c-0.206-1.162-0.389-1.677-1.82-1.389c-16.684,3.356-33.383,6.635-50.08,9.927
			c-16.035,3.162-32.071,6.314-48.107,9.469c-0.072-0.397-0.144-0.793-0.216-1.19c0.363-0.098,0.721-0.219,1.088-0.292
			c32.237-6.367,64.473-12.736,96.716-19.074c1.323-0.26,1.879-0.551,1.525-2.148c-2.379-10.716-6.283-20.837-11.416-30.521
			c-0.823-1.552-1.483-1.53-2.877-0.719c-15,8.728-30.031,17.402-45.069,26.065c-13.667,7.874-27.352,15.717-41.029,23.573
			c-0.117-0.306-0.234-0.613-0.351-0.919c1.933-1.688,4.278-2.715,6.467-3.981c26.381-15.26,52.774-30.501,79.196-45.689
			c1.561-0.897,1.966-1.5,0.882-3.151c-3.096-4.718-6.337-9.318-9.892-13.702c-0.908-1.12-1.498-1.453-2.8-0.31
			c-24.45,21.481-48.95,42.905-73.432,64.35c-0.548,0.48-1.3,0.809-1.439,1.655c-0.521-0.293-0.656-0.812-0.782-1.335
			c2.519-2.252,5.017-4.527,7.559-6.753c22.28-19.51,44.555-39.024,66.88-58.482c1.476-1.286,1.621-2.009,0.213-3.491
			c-7.289-7.674-15.355-14.363-24.33-19.98c-1.545-0.967-2.28-1.134-3.344,0.722c-14.71,25.658-29.504,51.269-44.318,76.868
			c-1.718,2.968-3.21,6.082-5.338,8.804c-0.307-0.116-0.614-0.232-0.921-0.347c0.456-0.86,0.885-1.735,1.371-2.577
			c16.036-27.771,32.059-55.551,48.164-83.282c1.033-1.779,0.724-2.436-0.976-3.305c-4.822-2.464-9.738-4.691-14.759-6.721
			c-1.982-0.801-2.604-0.295-3.255,1.625c-10.588,31.247-21.255,62.468-31.905,93.694c-0.452-0.124-0.904-0.249-1.356-0.373
			c0.115-0.193,0.268-0.373,0.339-0.582c10.673-31.308,21.33-62.622,32.039-93.919c0.513-1.5,0.018-1.872-1.297-2.283
			c-10.108-3.157-20.453-4.88-31.025-5.263c-3.043-0.11-3.048-0.064-3.048,2.973c-0.001,32.051-0.001,64.103,0.005,96.154
			c0,0.823,0.081,1.647,0.125,2.47c-0.429-0.048-0.858-0.097-1.287-0.145c-0.023-8.269-0.063-16.539-0.066-24.808
			c-0.009-24.812-0.019-49.623,0.03-74.435c0.003-1.712-0.356-2.365-2.222-2.276c-5.786,0.278-11.538,0.778-17.249,1.77
			c-1.159,0.201-1.682,0.38-1.393,1.816c3.356,16.683,6.635,33.382,9.927,50.079c3.161,16.034,6.313,32.07,9.467,48.105
			c-0.396,0.072-0.792,0.144-1.189,0.215c-0.322-1.619-0.646-3.237-0.967-4.856c-6.123-30.832-12.265-61.66-18.322-92.505
			c-0.353-1.795-0.784-2.331-2.673-1.885c-10.374,2.446-20.253,6.142-29.682,11.117c-1.896,1.001-1.887,1.786-0.894,3.489
			c8.817,15.122,17.554,30.29,26.293,45.457c7.724,13.407,15.421,26.829,23.13,40.245c-0.306,0.117-0.612,0.233-0.919,0.35
			c-1.736-1.992-2.784-4.412-4.088-6.665c-15.261-26.38-30.499-52.773-45.698-79.188c-0.795-1.381-1.349-1.754-2.838-0.795
			c-4.81,3.095-9.458,6.396-13.903,9.996c-1.125,0.911-1.444,1.504-0.305,2.801c21.48,24.449,42.903,48.949,64.348,73.43
			c0.48,0.547,0.809,1.3,1.655,1.439c-0.293,0.521-0.812,0.656-1.335,0.782c-2.252-2.519-4.527-5.017-6.753-7.559
			c-19.51-22.281-39.026-44.557-58.484-66.883c-1.29-1.48-2.01-1.611-3.491-0.207c-7.681,7.284-14.354,15.364-19.99,24.324
			c-0.977,1.553-1.113,2.286,0.731,3.344c25.591,14.679,51.134,29.443,76.671,44.215c3.034,1.755,6.208,3.29,9.004,5.442
			C204.601,214.857,204.485,215.164,204.369,215.472z"/>
		<path fill="#808080" d="M203.804,216.832c0.414-0.36,0.597-0.815,0.565-1.36c0.116-0.307,0.232-0.615,0.348-0.922
			c1.106-0.603,1.789-1.571,2.313-2.677c0.524-0.126,1.043-0.261,1.335-0.782c0.35-0.279,0.77-0.5,0.829-1.017
			c0.306-0.117,0.612-0.233,0.919-0.35c1.038-0.354,2.076-0.708,3.115-1.063c0.396-0.072,0.792-0.144,1.189-0.216
			c0.538,0.127,1.031-0.004,1.505-0.252c0.429,0.048,0.858,0.097,1.287,0.145c0.954,0.149,1.909,0.299,2.863,0.448
			c0.452,0.124,0.904,0.249,1.356,0.373c0.36,0.414,0.815,0.597,1.36,0.566c0.307,0.116,0.614,0.232,0.921,0.347
			c0.603,1.106,1.572,1.789,2.677,2.313c0.126,0.524,0.261,1.043,0.782,1.335c0.279,0.35,0.5,0.771,1.017,0.828
			c0.117,0.306,0.234,0.613,0.351,0.919c0.354,1.038,0.708,2.076,1.062,3.115c0.072,0.397,0.144,0.793,0.216,1.191
			c-0.128,0.537,0.005,1.03,0.251,1.503c-0.049,0.429-0.097,0.858-0.146,1.287c-0.149,0.954-0.299,1.909-0.448,2.863
			c-0.124,0.452-0.249,0.904-0.373,1.356c-0.414,0.36-0.597,0.815-0.565,1.36c-0.116,0.307-0.232,0.615-0.348,0.922
			c-1.106,0.603-1.789,1.571-2.313,2.677c-0.524,0.126-1.043,0.261-1.335,0.782c-0.35,0.279-0.771,0.5-0.828,1.017
			c-0.306,0.117-0.613,0.233-0.919,0.35c-1.038,0.354-2.076,0.708-3.115,1.063c-0.397,0.072-0.793,0.144-1.191,0.216
			c-0.537-0.128-1.03,0.005-1.503,0.251c-0.428-0.049-0.857-0.098-1.285-0.147c-0.955-0.149-1.91-0.298-2.865-0.447
			c-0.452-0.124-0.904-0.249-1.356-0.373c-0.36-0.414-0.815-0.597-1.36-0.566c-0.307-0.116-0.615-0.232-0.922-0.347
			c-0.603-1.106-1.571-1.789-2.677-2.313c-0.126-0.524-0.261-1.043-0.782-1.335c-0.279-0.35-0.5-0.771-1.017-0.828
			c-0.117-0.306-0.234-0.613-0.351-0.919c-0.354-1.038-0.708-2.076-1.062-3.115c-0.072-0.396-0.144-0.792-0.216-1.189
			c0.127-0.538-0.004-1.031-0.252-1.505c0.049-0.428,0.097-0.856,0.146-1.285c0.149-0.955,0.298-1.91,0.447-2.865
			C203.555,217.735,203.679,217.283,203.804,216.832z"/>
	</g>
	<radialGradient id="SVGID_1_" cx="220.4355" cy="80.4084" r="696.5963" gradientUnits="userSpaceOnUse">
		<stop  offset="0" style="stop-color:#F7931E"/>
		<stop  offset="1" style="stop-color:#ED1C24"/>
	</radialGradient>
	<path display="none" fill="url(#SVGID_1_)" d="M184.337-615.721l36.003,696.069l39.005-696.069H184.337z M334.426-607.252
		l-114.085,687.6l187.347-671.517L334.426-607.252z M479.207-566.796L220.341,80.348l326.976-615.727L479.207-566.796z
		 M611.947-496.238L220.341,80.348l451.395-531.295L611.947-496.238z M726.471-398.859L220.341,80.348l554.815-422.149
		L726.471-398.859z M817.451-279.189L220.341,80.348l632.429-293.367L817.451-279.189z M880.654-142.794L220.341,80.348
		L900.965-70.59L880.654-142.794z M913.143,3.98L220.341,80.348l697.157-1.488L913.143,3.98z M901.603,228.379l11.801-74.072
		L220.341,80.348L901.603,228.379z M881.426,301.193L220.341,80.348l633.677,290.666L881.426,301.193z M818.697,437.807
		L220.341,80.348l556.614,419.777L818.697,437.807z M728.133,557.793L220.341,80.348L674,609.712L728.133,557.793z M613.949,655.569
		L220.341,80.348l329.603,614.325L613.949,655.569z M481.455,726.589L220.341,80.348L410.553,751.06L481.455,726.589z
		 M336.816,767.548l-116.476-687.2l41.976,695.897L336.816,767.548z M186.757,776.538l33.584-696.19L112.125,769.062
		L186.757,776.538z M38.261,753.146l182.08-672.797L-33.032,729.839L38.261,753.146z M-101.765,698.456L220.341,80.348
		l-386.743,580.057L-101.765,698.456z M-226.808,615.015L220.341,80.348l-502.124,483.641L-226.808,615.015z M-331.051,506.703
		L220.341,80.348l-594.148,364.728L-331.051,506.703z M-409.646,378.559l629.986-298.21l-658.534,228.847L-409.646,378.559z
		 M-458.935,236.541L220.341,80.348l-692.287,82.323L-458.935,236.541z M-476.627,87.259l696.968-6.911l-693.837-68.03
		L-476.627,87.259z M-461.898-62.344L220.341,80.348l-663.112-215.22L-461.898-62.344z M-415.435-205.31L220.341,80.348
		l-601.542-352.397L-415.435-205.31z M-339.397-334.989L220.341,80.348l-511.99-473.184L-339.397-334.989z M-237.322-445.347
		L220.341,80.348l-398.622-571.959L-237.322-445.347z M-113.958-531.252l334.299,611.6L-46.371-563.78L-113.958-531.252z
		 M24.956-588.706L220.341,80.348L97.946-605.986L24.956-588.706z"/>
	<g>
		<path fill="#FFFFFF" d="M89.114,171.167c47.018,0,85.131,38.111,85.131,85.133c0,47.014-38.112,85.128-85.131,85.128
			c-47.017,0-85.129-38.114-85.129-85.128C3.985,209.278,42.097,171.167,89.114,171.167 M89.114,180.248
			c-41.933,0-76.05,34.116-76.05,76.052c0,41.932,34.117,76.045,76.05,76.045c41.935,0,76.052-34.113,76.052-76.045
			C165.166,214.365,131.049,180.248,89.114,180.248L89.114,180.248z"/>
		<path fill="#FFFFFF" d="M341.84,171.167c47.018,0,85.132,38.111,85.132,85.133c0,47.014-38.114,85.128-85.132,85.128
			c-47.016,0-85.129-38.114-85.129-85.128C256.711,209.278,294.824,171.167,341.84,171.167 M341.84,180.248
			c-41.935,0-76.048,34.116-76.048,76.052c0,41.932,34.113,76.045,76.048,76.045c41.936,0,76.051-34.113,76.051-76.045
			C417.891,214.365,383.776,180.248,341.84,180.248L341.84,180.248z"/>
		<path fill="#FFFFFF" d="M190.737,242.886c14.923,0,27.023,12.099,27.023,27.023c0,14.927-12.1,27.024-27.023,27.024
			c-14.925,0-27.024-12.097-27.024-27.024C163.713,254.985,175.812,242.886,190.737,242.886 M190.737,252.007
			c-9.871,0-17.905,8.032-17.905,17.902c0,9.873,8.033,17.905,17.905,17.905s17.901-8.032,17.901-17.905
			C208.638,260.039,200.608,252.007,190.737,252.007L190.737,252.007z"/>
		<path fill="#FFFFFF" d="M168.47,271.731c0,0,13.968-0.81,15.181-4.046c1.214-3.241-6.275-14.576-6.275-14.576l3.846-2.228
			c0,0,5.059,12.552,9.11,12.552s11.133-12.146,11.133-12.146l3.847,3.236c0,0-9.111,9.516-8.706,12.959
			c0.408,3.439,14.374,8.097,14.374,8.097l-1.619,4.453l-8.098-1.415l17.814,27.529l6.681,1.415l0.606,4.252l-2.634,2.632
			l-16.393,2.023l-3.036-3.44l0.808-4.049l4.048-1.618l-17.205-25.305l-0.205,9.311h-5.261c0,0,2.227-14.373-0.405-16.194
			c-2.63-1.822-16.397,2.224-16.397,2.224L168.47,271.731z"/>
		<line fill="#FFFFFF" x1="89.495" y1="247.412" x2="191.385" y2="243.861"/>
		<polygon fill="#FFFFFF" points="89.452,246.174 191.343,242.624 191.427,245.099 89.538,248.648 89.452,246.174 		"/>
		<line fill="#FFFFFF" x1="183.845" y1="295.014" x2="89.209" y2="265.653"/>
		<polygon fill="#FFFFFF" points="88.843,266.832 89.573,264.472 184.208,293.831 183.478,296.196 88.843,266.832 		"/>
		<path fill="#FFFFFF" d="M115.709,95.953c1.001,4.643,7.996,8.024,13.035,8.871c1.328,0.775,1.486,2.758,3.364,3.031
			c3.327,0.483,15.146-0.862,19.25-2.313c2.79-0.987,4.958-2.842,7.602-3.88c2.162-0.851,5.889-1.604,8.624-1.328
			c1.542,0.158,3.077,1.646,5.076,1.748c2.031,0.104,4.057-0.393,5.934-1.136c1.089-0.429,2.196-0.939,3.225-1.499
			c0.398-0.217,0.601-0.458,0.678-0.716c0.158-0.539-0.246-1.156-0.59-1.799c-0.293-0.546-0.629-1.075-1.037-1.548
			c-0.841-0.967-1.945-1.61-3.151-2.015c-2.924-0.986-6.226-0.959-9.273-0.928c-1.971,0.018-3.933,0.137-5.902,0.215
			c-5.138,0.205-11.129,0.448-16.265,0.438c-8.302-0.02-14.589-0.885-22.363-1.726C119.884,90.928,114.465,90.175,115.709,95.953z
			 M135.305,106.62c-1.816,0.041-3.379-0.217-4.068-1.496l2.62-0.203c0,0.005,0.003,0.008,0.003,0.012
			c0.431-0.031,1.456-0.109,1.48-0.107c-0.005-0.008-0.008-0.014-0.011-0.019c7.165-0.335,12.733-1.853,18.988-2.458
			c-1.675,1.264-2.489,1.879-5.315,2.553C149.01,104.991,140.188,106.487,135.305,106.62z"/>
		<path fill="#FFFFFF" d="M341.092,246.014c-0.917,0-1.803,0.128-2.648,0.348c-3.737-7.511-10.077-20.399-12.107-25.48
			c-2.717-6.788-17.411-52.017-19.698-59.064l0.679-0.234c0.812-0.282,1.243-1.168,0.963-1.981c-0.28-0.813-1.168-1.245-1.979-0.964
			l-0.22,0.076l-9.222-29.713c0.689-0.343,1.036-1.144,0.779-1.891c-0.28-0.814-1.164-1.247-1.98-0.967l-0.084,0.03l-2.436-5.471
			l6.477,1.36c0.042,0.003,0.088,0.008,0.145,0.016c1.669,0.196,9.797,1.353,17.124,4.489c3.663,1.556,7.092,3.606,9.433,6.038
			c2.341,2.468,3.647,5.086,3.672,8.57c0,0.316-0.012,0.651-0.038,1.008c-0.305,4.021-1.386,7.016-2.986,9.442
			c-2.389,3.61-6.152,6.125-11.028,7.986c-4.853,1.856-10.698,2.968-16.657,3.864c0,0-1.367,1.19-0.891,3.945
			c0.475,2.758,1.98,3.274,1.98,3.274c8.172-1.251,16.649-2.842,23.687-6.839c3.512-2.004,6.661-4.67,8.998-8.201
			c2.342-3.522,3.805-7.859,4.18-12.939c0.036-0.519,0.058-1.028,0.058-1.54c0.024-5.93-2.717-10.832-6.411-14.322
			c-5.558-5.275-13.155-8.102-19.392-9.84c-6.238-1.713-11.157-2.22-11.288-2.234l-0.371-0.022l-11.958-2.388
			c-1.194,0-2.319,0.59-2.997,1.573c-0.683,0.982-0.839,2.241-0.42,3.36l4.215,11.252l-0.076,0.024
			c-0.813,0.281-1.244,1.167-0.964,1.979c0.274,0.796,1.13,1.222,1.931,0.979l0.142,0.454c-0.17,0.162-0.347,0.313-0.52,0.471
			L156.358,136.6l-9.481-31.423c-4.46-1.787-7.157,1.016-7.157,1.016l10.508,36.199l-58.825,103.88
			c-0.737-0.165-1.499-0.257-2.288-0.257c-5.824,0-10.545,4.722-10.545,10.548c0,5.824,4.722,10.543,10.545,10.543
			c3.799,0,7.116-2.011,8.973-5.024l94.955,12.94l105.776-114.135l0.105,0.34c-0.602,0.375-0.893,1.126-0.652,1.829
			c0.282,0.813,1.168,1.243,1.981,0.964l0.474-0.166l17.401,52.188c0,0,10.421,21.73,16.349,32.31
			c-2.396,1.934-3.933,4.89-3.933,8.21c0,5.824,4.723,10.543,10.548,10.543c5.824,0,10.545-4.719,10.545-10.543
			C351.637,250.736,346.916,246.014,341.092,246.014z M99.561,257.927c0.061-0.446,0.1-0.899,0.1-1.364
			c0-3.99-2.214-7.455-5.479-9.251l57.799-98.402l34.055,116.964L99.561,257.927z M192.653,263.342l-33.476-118.716l132.925-4.863
			l3.96,12.396L192.653,263.342z"/>
	</g>
</g>
</svg>
